# xmcd
#
# Track frame offsets:
# 150
# 14965
# 48861
# 62357
# 83128
# 102910
# 125073
# 141859
# 157673
# 182902
# 201446
# 220343
# 235234
# 252029
# 267724
# 284142
#
# Disc length: 4044 seconds
#
# Revision: 0
# Processed by: cddbd v1.5.2PL0 Copyright (c) Steve Scherf et al.
# Submitted via: Audion 3.0.2 (http://www.panic.com/audion/)
#
DISCID=f50fca10
DTITLE=Various Artist - In Yo' Face
DYEAR=1900
DGENRE=
TTITLE0=01
TTITLE1=The Payback    James Brown
TTITLE2=If You Want Me To Stay    Sly and The Family Stone
TTITLE3=Hollywood Swinging    Kool and The Gang
TTITLE4=Water   Graham Central Station
TTITLE5=School Boy Crush    Average White Band
TTITLE6=Tear The Roof Off The Sucker (Give Up The Funk) 7"    Parliament
TTITLE7=Shake Your Rump To The Funk    Bar-Kays
TTITLE8=Dazz     Brick
TTITLE9=The Pinocchio Theory   Bootsy's Rubber Band
TTITLE10=Got To Give It Up    Marvin Gaye
TTITLE11=Slide 7"    Slave
TTITLE12=Serpentine Fire    Earth, Wind and Fire
TTITLE13=Reach For It     George Duke
TTITLE14=L-o-v-e-u     George Duke
TTITLE15=Take Me To The Next Phase    The Isley Brothers
EXTD=
EXTT0=
EXTT1=
EXTT2=
EXTT3=
EXTT4=
EXTT5=
EXTT6=
EXTT7=
EXTT8=
EXTT9=
EXTT10=
EXTT11=
EXTT12=
EXTT13=
EXTT14=
EXTT15=
PLAYORDER=
